# xmcd
#
# Track frame offsets: 
#        150
#        17770
#        42147
#
# Disc length: 801 seconds
#
# Revision: 3
# Processed by: cddbd v1.5.2PL0 Copyright (c) Steve Scherf et al.
# Submitted via: ExactAudioCopy v0.99pb4
#
DISCID=19031f03
DTITLE=Don Henley - The Heart Of The Matter
DYEAR=1989
DGENRE=Pop
TTITLE0=The Heart Of The Matter (Edit/Remix)
TTITLE1=The Heart Of The Matter (LP Version)
TTITLE2=The Heart Of The Matter (AC Edit)
EXTD=
EXTT0=
EXTT1=
EXTT2=
PLAYORDER=
